<!-- icon666.com - MILLIONS vector ICONS FREE --><svg clip-rule="evenodd" fill-rule="evenodd" stroke-linejoin="round" stroke-miterlimit="2" viewBox="0 0 67 67" xmlns="http://www.w3.org/2000/svg"><path d="m54.167 12.5h-41.667c-1.151 0-2.083.933-2.083 2.083 0 3.45-2.801 6.25-6.25 6.25-1.151 0-2.084.933-2.084 2.084v20.833c0 1.151.933 2.083 2.084 2.083 3.449 0 6.25 2.801 6.25 6.25 0 1.151.932 2.084 2.083 2.084h41.667c1.15 0 2.083-.933 2.083-2.084 0-3.449 2.801-6.25 6.25-6.25 1.151 0 2.083-.932 2.083-2.083v-20.833c0-1.151-.932-2.084-2.083-2.084-3.449 0-6.25-2.8-6.25-6.25 0-1.15-.933-2.083-2.083-2.083z" fill="#212121"></path><path d="m41.667 16.667-14.584-.001v33.334h14.584v-1.042c0-1.149.933-2.083 2.083-2.083s2.083.934 2.083 2.083v1.042h6.459c.829-4.079 4.046-7.295 8.125-8.125v-17.084c-4.079-.829-7.296-4.045-8.125-8.124h-6.459v1.041c0 1.15-.933 2.084-2.083 2.084s-2.083-.934-2.083-2.084z" fill="#ecc247"></path><path d="m37.654 50v-33.333s-23.279 0-23.279-.001c-.83 4.08-4.046 7.296-8.125 8.125 0 0 0 17.085 0 17.084 4.079.83 7.295 4.046 8.125 8.125z" fill="#fcd151"></path><g fill="#212121"><path d="m45.833 42.708v-2.083c0-1.15-.933-2.083-2.083-2.083s-2.083.933-2.083 2.083v2.083c0 1.15.933 2.084 2.083 2.084s2.083-.934 2.083-2.084z"></path><path d="m22.917 43.75h8.333c1.15 0 2.083-.934 2.083-2.083 0-1.15-.933-2.084-2.083-2.084h-8.333c-1.15 0-2.084.934-2.084 2.084 0 1.149.934 2.083 2.084 2.083z"></path><path d="m45.833 34.375v-2.083c0-1.15-.933-2.084-2.083-2.084s-2.083.934-2.083 2.084v2.083c0 1.15.933 2.083 2.083 2.083s2.083-.933 2.083-2.083z"></path><path d="m22.917 35.417h8.333c1.15 0 2.083-.934 2.083-2.084 0-1.149-.933-2.083-2.083-2.083h-8.333c-1.15 0-2.084.934-2.084 2.083 0 1.15.934 2.084 2.084 2.084z"></path><path d="m45.833 26.042v-2.084c0-1.149-.933-2.083-2.083-2.083s-2.083.934-2.083 2.083v2.084c0 1.149.933 2.083 2.083 2.083s2.083-.934 2.083-2.083z"></path><path d="m22.917 27.083h8.333c1.15 0 2.083-.933 2.083-2.083s-.933-2.083-2.083-2.083h-8.333c-1.15 0-2.084.933-2.084 2.083s.934 2.083 2.084 2.083z"></path></g></svg>