<svg width="30" height="30" viewBox="0 0 30 30" fill="none" xmlns="http://www.w3.org/2000/svg">
<path d="M28.8887 14.4009C18.084 14.4009 15.5996 11.9165 15.5996 1.11182C15.5996 0.952791 15.5364 0.800277 15.424 0.687829C15.3115 0.57538 15.159 0.512207 15 0.512207C14.841 0.512207 14.6885 0.57538 14.576 0.687829C14.4636 0.800277 14.4004 0.952791 14.4004 1.11182C14.4004 11.9165 11.916 14.4009 1.11133 14.4009C0.952302 14.4009 0.799789 14.4641 0.68734 14.5765C0.574892 14.6889 0.511719 14.8415 0.511719 15.0005C0.511719 15.1595 0.574892 15.312 0.68734 15.4245C0.799789 15.5369 0.952302 15.6001 1.11133 15.6001C11.916 15.6001 14.4004 18.0845 14.4004 28.8882C14.4004 29.0472 14.4636 29.1997 14.576 29.3122C14.6885 29.4246 14.841 29.4878 15 29.4878C15.159 29.4878 15.3115 29.4246 15.424 29.3122C15.5364 29.1997 15.5996 29.0472 15.5996 28.8882C15.5996 18.0845 18.084 15.6001 28.8887 15.6001C29.0477 15.6001 29.2002 15.5369 29.3127 15.4245C29.4251 15.312 29.4883 15.1595 29.4883 15.0005C29.4883 14.8415 29.4251 14.6889 29.3127 14.5765C29.2002 14.4641 29.0477 14.4009 28.8887 14.4009Z" fill="url(#paint0_linear_2038_1882)"/>
<defs>
<linearGradient id="paint0_linear_2038_1882" x1="15" y1="2" x2="15" y2="29.4878" gradientUnits="userSpaceOnUse">
<stop offset="0.390235" stop-color="#F8D383"/>
<stop offset="0.470157" stop-color="#FFEFB0"/>
</linearGradient>
</defs>
</svg>
